<svg width="48" height="49" viewBox="0 0 48 49" fill="none" xmlns="http://www.w3.org/2000/svg">
<path d="M3.95884 0.78302C2.96428 0.78302 2.01046 1.17811 1.30719 1.88137C0.603933 2.58463 0.208845 3.53846 0.208845 4.53302C0.208845 5.52758 0.603933 6.48141 1.30719 7.18467C2.01046 7.88793 2.96428 8.28302 3.95884 8.28302L33.3588 8.28302C33.4808 8.28259 33.6003 8.31787 33.7024 8.38451C33.8046 8.45114 33.8851 8.54622 33.9338 8.65802C33.9833 8.77423 33.9978 8.90231 33.9756 9.02663C33.9534 9.15094 33.8954 9.26609 33.8088 9.35802L1.30885 41.858C0.959202 42.206 0.681525 42.6195 0.491671 43.0748C0.301817 43.5301 0.203502 44.0184 0.202342 44.5117C0.201181 45.005 0.297196 45.4937 0.484906 45.9499C0.672616 46.4061 0.948344 46.8209 1.29635 47.1705C1.99917 47.8767 2.95372 48.2747 3.95001 48.277C4.94629 48.2794 5.90271 47.8858 6.60885 47.183L39.1088 14.683C39.2084 14.6153 39.326 14.5791 39.4463 14.5791C39.5667 14.5791 39.6843 14.6153 39.7838 14.683C39.8956 14.7318 39.9907 14.8122 40.0574 14.9144C40.124 15.0166 40.1593 15.136 40.1588 15.258L40.1588 44.533C40.1588 45.5276 40.5539 46.4814 41.2572 47.1847C41.9605 47.8879 42.9143 48.283 43.9088 48.283C44.9034 48.283 45.8572 47.8879 46.5605 47.1847C47.2638 46.4814 47.6588 45.5276 47.6588 44.533L47.6588 7.03302C47.6603 6.20575 47.4976 5.38642 47.18 4.62253C46.8624 3.85865 46.3964 3.16541 45.8088 2.58302C44.6445 1.44565 43.0864 0.800947 41.4588 0.783018L3.95884 0.78302Z" fill="black"/>
</svg>
